#!OML:ASF E:\Steps\Project 1\Capture day 1\Session 2\Subject.ASF
:FULLY-SPECIFIED
:DEGREES
2854
root 9.21982 16.517 5.00859 27.0139 12.2803 4.86625
lowerback -20.2407 -1.50891 -6.19283
upperback 1.89481 0.0698861 -3.83785
thorax 13.6202 -0.232387 -0.78671
lowerneck 1.37903 -0.37665 -4.12848
upperneck 25.3646 -1.88279 8.18335
head 7.63605 -0.569259 3.32899
rclavicle -3.02153e-014 -2.06736e-014
rhumerus -35.8302 2.02403 -75.5438
rradius 64.3707
rwrist -9.9347
rhand 1.12017 -784.182
rfingers 7.12502
rthumb 26.6629 1172.32
lclavicle -3.02153e-014 -2.06736e-014
lhumerus -31.9867 -2.82833 70.1982
lradius 32.8056
lwrist 0.833703
lhand -14.9009 -9.82242
lfingers 7.12502
lthumb 11.2603 -340.145
rfemur -24.4445 3.49859 15.1756
rtibia 9.98361
rfoot -19.0808 -11.0644
rtoes 8.76988
lfemur -45.0484 -12.2088 -13.1587
ltibia 32.5703
lfoot 362.39 -9.20623
ltoes -34.9634
2855
root 9.27386 16.5072 5.05532 26.7502 12.1256 4.73578
lowerback -20.4904 -1.58028 -6.23603
upperback 1.91928 -0.000849707 -3.74861
thorax 13.7979 -0.275444 -0.691402
lowerneck 0.651626 -0.175625 -3.50131
upperneck 25.8042 -1.47474 7.32861
head 7.8841 -0.370489 2.9659
rclavicle 5.1684e-015 9.54166e-015
rhumerus -36.1854 1.85867 -75.8676
rradius 64.0754
rwrist -9.92925
rhand 0.885537 -784.151
rfingers 7.12502
rthumb 26.4383 1172.33
lclavicle 5.1684e-015 9.54166e-015
lhumerus -31.9998 -2.83432 70.704
lradius 33.0206
lwrist 0.825183
lhand -15.2142 -9.44192
lfingers 7.12502
lthumb 10.9581 -339.748
rfemur -24.096 3.52149 15.1767
rtibia 10.2054
rfoot -19.2148 -11.122
rtoes 6.57717
lfemur -43.517 -12.1189 -13.4573
ltibia 31.0123
lfoot 361.931 -9.36695
ltoes -30.2812
2856
root 9.32735 16.4975 5.09556 26.4674 11.9519 4.52658
lowerback -20.5536 -1.56665 -6.1165
upperback 1.88804 -0.0165859 -3.69812
thorax 13.797 -0.276059 -0.707008
lowerneck 0.422173 -0.234037 -3.1371
upperneck 26.3451 -1.59311 7.25948
head 8.11628 -0.388683 2.88402
rclavicle -1.70955e-014 1.66979e-014
rhumerus -36.7028 1.61889 -76.1883
rradius 63.7789
rwrist -9.84497
rhand 1.22102 -784.371
rfingers 7.12502
rthumb 26.7594 1172.5
lclavicle -1.70955e-014 1.66979e-014
lhumerus -32.2001 -2.83231 71.1756
lradius 33.418
lwrist 0.667353
lhand -15.6309 -9.4793
lfingers 7.12502
lthumb 10.5562 -339.764
rfemur -23.7692 3.71276 15.2225
rtibia 10.3886
rfoot -19.2938 -11.1315
rtoes 5.77632
lfemur -41.9845 -11.7985 -13.7381
ltibia 29.3728
lfoot 361.21 -9.34732
ltoes -28.4285
2857
root 9.3813 16.4881 5.13657 26.2028 11.7706 4.37786
lowerback -20.6584 -1.5791 -6.10573
upperback 1.88275 -0.0367395 -3.62569
thorax 13.8524 -0.289098 -0.639868
lowerneck -0.0602691 -0.145129 -2.45738
upperneck 26.6924 -1.31609 6.28554
head 8.30454 -0.266412 2.46065
rclavicle 1.23246e-014 -1.03368e-014
rhumerus -37.2815 1.31804 -76.4309
rradius 63.5028
rwrist -9.7444
rhand 1.29991 -784.172
rfingers 7.12502
rthumb 26.8349 1172.29
lclavicle 1.23246e-014 -1.03368e-014
lhumerus -32.2358 -2.85117 71.679
lradius 33.7776
lwrist 0.618122
lhand -15.7356 -9.4218
lfingers 7.12502
lthumb 10.4553 -339.702
rfemur -23.3843 4.07001 15.1377
rtibia 10.4779
rfoot -19.4935 -11.1295
rtoes 6.37
lfemur -40.5108 -11.3358 -14.2036
ltibia 27.8218
lfoot 360.379 -9.38672
ltoes -28.1434
2858
root 9.44031 16.4755 5.18082 26.1059 11.7808 4.16822
lowerback -21.0218 -1.70389 -5.98414
upperback 1.84824 -0.220715 -3.49565
thorax 14.0294 -0.372422 -0.629354
lowerneck 0.643023 -0.275144 -3.23031
upperneck 26.3597 -1.6705 7.32773
head 8.0868 -0.434914 2.91819
rclavicle 2.3059e-014 -6.36111e-015
rhumerus -37.8277 1.10715 -76.7436
rradius 63.1489
rwrist -9.71674
rhand 0.676124 -783.828
rfingers 7.12502
rthumb 26.2378 1172.03
lclavicle 2.3059e-014 -6.36111e-015
lhumerus -32.0391 -2.68978 72.1193
lradius 33.8877
lwrist 0.574201
lhand -15.7332 -9.41946
lfingers 7.12502
lthumb 10.4575 -339.7
rfemur -23.1098 4.15573 15.2172
rtibia 10.561
rfoot -19.6544 -11.238
rtoes 4.84731
lfemur -39.3461 -10.975 -14.5432
ltibia 26.4225
lfoot 359.665 -9.65926
ltoes -27.3008
